<mxfile host="app.diagrams.net" modified="2024-04-04T05:56:36.337Z" agent="Mozilla/5.0 (Windows NT 10.0; Win64; x64) AppleWebKit/537.36 (KHTML, like Gecko) Chrome/123.0.0.0 Safari/537.36" etag="O6wTmkHxC8Q9Zf6ZYNw9" version="24.2.2" type="github">
  <diagram id="C5RBs43oDa-KdzZeNtuy" name="Page-1">
    <mxGraphModel dx="858" dy="1338" grid="1" gridSize="10" guides="1" tooltips="1" connect="1" arrows="1" fold="1" page="1" pageScale="1" pageWidth="827" pageHeight="1169" math="0" shadow="0">
      <root>
        <mxCell id="WIyWlLk6GJQsqaUBKTNV-0" />
        <mxCell id="WIyWlLk6GJQsqaUBKTNV-1" parent="WIyWlLk6GJQsqaUBKTNV-0" />
        <mxCell id="WIyWlLk6GJQsqaUBKTNV-2" value="" style="rounded=0;html=1;jettySize=auto;orthogonalLoop=1;fontSize=11;endArrow=block;endFill=0;endSize=8;strokeWidth=1;shadow=0;labelBackgroundColor=none;edgeStyle=orthogonalEdgeStyle;" parent="WIyWlLk6GJQsqaUBKTNV-1" source="WIyWlLk6GJQsqaUBKTNV-3" edge="1">
          <mxGeometry relative="1" as="geometry">
            <mxPoint x="220" y="170" as="targetPoint" />
          </mxGeometry>
        </mxCell>
        <mxCell id="WIyWlLk6GJQsqaUBKTNV-3" value="Mulai" style="rounded=1;whiteSpace=wrap;html=1;fontSize=12;glass=0;strokeWidth=1;shadow=0;" parent="WIyWlLk6GJQsqaUBKTNV-1" vertex="1">
          <mxGeometry x="160" y="100" width="120" height="40" as="geometry" />
        </mxCell>
        <mxCell id="WIyWlLk6GJQsqaUBKTNV-11" value="Selesai" style="rounded=1;whiteSpace=wrap;html=1;fontSize=12;glass=0;strokeWidth=1;shadow=0;" parent="WIyWlLk6GJQsqaUBKTNV-1" vertex="1">
          <mxGeometry x="162.5" y="1190" width="120" height="40" as="geometry" />
        </mxCell>
        <mxCell id="WtQ2wS6L-ct6F4GXEsZS-0" value="Ibu memberi perintah, &quot;Beli 1 Botol Susu&quot;" style="rounded=0;whiteSpace=wrap;html=1;" vertex="1" parent="WIyWlLk6GJQsqaUBKTNV-1">
          <mxGeometry x="160" y="170" width="120" height="60" as="geometry" />
        </mxCell>
        <mxCell id="WtQ2wS6L-ct6F4GXEsZS-2" value="Anak Menjawab, &quot;OK&quot;" style="rounded=0;whiteSpace=wrap;html=1;" vertex="1" parent="WIyWlLk6GJQsqaUBKTNV-1">
          <mxGeometry x="160" y="260" width="120" height="60" as="geometry" />
        </mxCell>
        <mxCell id="WtQ2wS6L-ct6F4GXEsZS-13" style="edgeStyle=orthogonalEdgeStyle;rounded=0;orthogonalLoop=1;jettySize=auto;html=1;exitX=0.5;exitY=1;exitDx=0;exitDy=0;" edge="1" parent="WIyWlLk6GJQsqaUBKTNV-1" source="WtQ2wS6L-ct6F4GXEsZS-4">
          <mxGeometry relative="1" as="geometry">
            <mxPoint x="220" y="480" as="targetPoint" />
          </mxGeometry>
        </mxCell>
        <mxCell id="WtQ2wS6L-ct6F4GXEsZS-4" value="Anak pergi ke Toko" style="rounded=0;whiteSpace=wrap;html=1;" vertex="1" parent="WIyWlLk6GJQsqaUBKTNV-1">
          <mxGeometry x="160" y="350" width="120" height="60" as="geometry" />
        </mxCell>
        <mxCell id="WtQ2wS6L-ct6F4GXEsZS-6" value="" style="rounded=0;html=1;jettySize=auto;orthogonalLoop=1;fontSize=11;endArrow=block;endFill=0;endSize=8;strokeWidth=1;shadow=0;labelBackgroundColor=none;edgeStyle=orthogonalEdgeStyle;" edge="1" parent="WIyWlLk6GJQsqaUBKTNV-1">
          <mxGeometry relative="1" as="geometry">
            <mxPoint x="219.5" y="230" as="sourcePoint" />
            <mxPoint x="219.5" y="260" as="targetPoint" />
          </mxGeometry>
        </mxCell>
        <mxCell id="WtQ2wS6L-ct6F4GXEsZS-7" value="" style="rounded=0;html=1;jettySize=auto;orthogonalLoop=1;fontSize=11;endArrow=block;endFill=0;endSize=8;strokeWidth=1;shadow=0;labelBackgroundColor=none;edgeStyle=orthogonalEdgeStyle;" edge="1" parent="WIyWlLk6GJQsqaUBKTNV-1">
          <mxGeometry relative="1" as="geometry">
            <mxPoint x="219.5" y="320" as="sourcePoint" />
            <mxPoint x="219.5" y="350" as="targetPoint" />
          </mxGeometry>
        </mxCell>
        <mxCell id="WtQ2wS6L-ct6F4GXEsZS-17" style="edgeStyle=orthogonalEdgeStyle;rounded=0;orthogonalLoop=1;jettySize=auto;html=1;exitX=1;exitY=0.5;exitDx=0;exitDy=0;entryX=0;entryY=0.5;entryDx=0;entryDy=0;" edge="1" parent="WIyWlLk6GJQsqaUBKTNV-1" source="WtQ2wS6L-ct6F4GXEsZS-11" target="WtQ2wS6L-ct6F4GXEsZS-15">
          <mxGeometry relative="1" as="geometry" />
        </mxCell>
        <mxCell id="WtQ2wS6L-ct6F4GXEsZS-20" value="Ada" style="edgeLabel;html=1;align=center;verticalAlign=middle;resizable=0;points=[];" vertex="1" connectable="0" parent="WtQ2wS6L-ct6F4GXEsZS-17">
          <mxGeometry x="-0.219" y="2" relative="1" as="geometry">
            <mxPoint as="offset" />
          </mxGeometry>
        </mxCell>
        <mxCell id="WtQ2wS6L-ct6F4GXEsZS-22" style="edgeStyle=orthogonalEdgeStyle;rounded=0;orthogonalLoop=1;jettySize=auto;html=1;exitX=0.5;exitY=1;exitDx=0;exitDy=0;entryX=0.5;entryY=0;entryDx=0;entryDy=0;" edge="1" parent="WIyWlLk6GJQsqaUBKTNV-1" source="WtQ2wS6L-ct6F4GXEsZS-11" target="WtQ2wS6L-ct6F4GXEsZS-23">
          <mxGeometry relative="1" as="geometry">
            <mxPoint x="223" y="660.0000000000002" as="targetPoint" />
          </mxGeometry>
        </mxCell>
        <mxCell id="WtQ2wS6L-ct6F4GXEsZS-24" value="Tidak" style="edgeLabel;html=1;align=center;verticalAlign=middle;resizable=0;points=[];" vertex="1" connectable="0" parent="WtQ2wS6L-ct6F4GXEsZS-22">
          <mxGeometry x="-0.4149" y="1" relative="1" as="geometry">
            <mxPoint as="offset" />
          </mxGeometry>
        </mxCell>
        <mxCell id="WtQ2wS6L-ct6F4GXEsZS-11" value="Apakah susu ada?" style="rhombus;whiteSpace=wrap;html=1;" vertex="1" parent="WIyWlLk6GJQsqaUBKTNV-1">
          <mxGeometry x="160" y="475" width="125" height="110" as="geometry" />
        </mxCell>
        <mxCell id="WtQ2wS6L-ct6F4GXEsZS-19" style="edgeStyle=orthogonalEdgeStyle;rounded=0;orthogonalLoop=1;jettySize=auto;html=1;exitX=0.5;exitY=1;exitDx=0;exitDy=0;entryX=0.5;entryY=0;entryDx=0;entryDy=0;" edge="1" parent="WIyWlLk6GJQsqaUBKTNV-1" source="WtQ2wS6L-ct6F4GXEsZS-15" target="WtQ2wS6L-ct6F4GXEsZS-18">
          <mxGeometry relative="1" as="geometry" />
        </mxCell>
        <mxCell id="WtQ2wS6L-ct6F4GXEsZS-15" value="Anak mengecek harganya, cukup" style="rounded=0;whiteSpace=wrap;html=1;" vertex="1" parent="WIyWlLk6GJQsqaUBKTNV-1">
          <mxGeometry x="390" y="500" width="120" height="60" as="geometry" />
        </mxCell>
        <mxCell id="WtQ2wS6L-ct6F4GXEsZS-26" value="" style="edgeStyle=orthogonalEdgeStyle;rounded=0;orthogonalLoop=1;jettySize=auto;html=1;" edge="1" parent="WIyWlLk6GJQsqaUBKTNV-1" source="WtQ2wS6L-ct6F4GXEsZS-18" target="WtQ2wS6L-ct6F4GXEsZS-25">
          <mxGeometry relative="1" as="geometry" />
        </mxCell>
        <mxCell id="WtQ2wS6L-ct6F4GXEsZS-29" value="Tidak" style="edgeLabel;html=1;align=center;verticalAlign=middle;resizable=0;points=[];" vertex="1" connectable="0" parent="WtQ2wS6L-ct6F4GXEsZS-26">
          <mxGeometry x="-0.1967" y="-1" relative="1" as="geometry">
            <mxPoint as="offset" />
          </mxGeometry>
        </mxCell>
        <mxCell id="WtQ2wS6L-ct6F4GXEsZS-28" value="" style="edgeStyle=orthogonalEdgeStyle;rounded=0;orthogonalLoop=1;jettySize=auto;html=1;" edge="1" parent="WIyWlLk6GJQsqaUBKTNV-1" source="WtQ2wS6L-ct6F4GXEsZS-18" target="WtQ2wS6L-ct6F4GXEsZS-27">
          <mxGeometry relative="1" as="geometry" />
        </mxCell>
        <mxCell id="WtQ2wS6L-ct6F4GXEsZS-30" value="Ada" style="edgeLabel;html=1;align=center;verticalAlign=middle;resizable=0;points=[];" vertex="1" connectable="0" parent="WtQ2wS6L-ct6F4GXEsZS-28">
          <mxGeometry x="-0.1221" y="-1" relative="1" as="geometry">
            <mxPoint y="1" as="offset" />
          </mxGeometry>
        </mxCell>
        <mxCell id="WtQ2wS6L-ct6F4GXEsZS-18" value="Apakah ada telur?" style="rhombus;whiteSpace=wrap;html=1;" vertex="1" parent="WIyWlLk6GJQsqaUBKTNV-1">
          <mxGeometry x="387.5" y="635" width="125" height="110" as="geometry" />
        </mxCell>
        <mxCell id="WtQ2wS6L-ct6F4GXEsZS-36" value="" style="edgeStyle=orthogonalEdgeStyle;rounded=0;orthogonalLoop=1;jettySize=auto;html=1;" edge="1" parent="WIyWlLk6GJQsqaUBKTNV-1" source="WtQ2wS6L-ct6F4GXEsZS-23" target="WtQ2wS6L-ct6F4GXEsZS-35">
          <mxGeometry relative="1" as="geometry" />
        </mxCell>
        <mxCell id="WtQ2wS6L-ct6F4GXEsZS-23" value="Anak tidak jadi membeli susu" style="rounded=0;whiteSpace=wrap;html=1;" vertex="1" parent="WIyWlLk6GJQsqaUBKTNV-1">
          <mxGeometry x="162.5" y="660" width="120" height="60" as="geometry" />
        </mxCell>
        <mxCell id="WtQ2wS6L-ct6F4GXEsZS-38" style="edgeStyle=orthogonalEdgeStyle;rounded=0;orthogonalLoop=1;jettySize=auto;html=1;exitX=0.5;exitY=1;exitDx=0;exitDy=0;entryX=1;entryY=0.5;entryDx=0;entryDy=0;" edge="1" parent="WIyWlLk6GJQsqaUBKTNV-1" source="WtQ2wS6L-ct6F4GXEsZS-25" target="WtQ2wS6L-ct6F4GXEsZS-35">
          <mxGeometry relative="1" as="geometry" />
        </mxCell>
        <mxCell id="WtQ2wS6L-ct6F4GXEsZS-25" value="Anak Membeli satu botol susu" style="whiteSpace=wrap;html=1;" vertex="1" parent="WIyWlLk6GJQsqaUBKTNV-1">
          <mxGeometry x="595" y="660" width="120" height="60" as="geometry" />
        </mxCell>
        <mxCell id="WtQ2wS6L-ct6F4GXEsZS-37" style="edgeStyle=orthogonalEdgeStyle;rounded=0;orthogonalLoop=1;jettySize=auto;html=1;exitX=0.5;exitY=1;exitDx=0;exitDy=0;entryX=1;entryY=0.5;entryDx=0;entryDy=0;" edge="1" parent="WIyWlLk6GJQsqaUBKTNV-1" source="WtQ2wS6L-ct6F4GXEsZS-27" target="WtQ2wS6L-ct6F4GXEsZS-35">
          <mxGeometry relative="1" as="geometry" />
        </mxCell>
        <mxCell id="WtQ2wS6L-ct6F4GXEsZS-27" value="Anak Membeli 6 botol susu" style="whiteSpace=wrap;html=1;" vertex="1" parent="WIyWlLk6GJQsqaUBKTNV-1">
          <mxGeometry x="390" y="850" width="120" height="60" as="geometry" />
        </mxCell>
        <mxCell id="WtQ2wS6L-ct6F4GXEsZS-40" value="" style="edgeStyle=orthogonalEdgeStyle;rounded=0;orthogonalLoop=1;jettySize=auto;html=1;" edge="1" parent="WIyWlLk6GJQsqaUBKTNV-1" source="WtQ2wS6L-ct6F4GXEsZS-35" target="WtQ2wS6L-ct6F4GXEsZS-39">
          <mxGeometry relative="1" as="geometry" />
        </mxCell>
        <mxCell id="WtQ2wS6L-ct6F4GXEsZS-35" value="Anak pulang kerumah" style="whiteSpace=wrap;html=1;rounded=0;" vertex="1" parent="WIyWlLk6GJQsqaUBKTNV-1">
          <mxGeometry x="162.5" y="920" width="120" height="60" as="geometry" />
        </mxCell>
        <mxCell id="WtQ2wS6L-ct6F4GXEsZS-41" style="edgeStyle=orthogonalEdgeStyle;rounded=0;orthogonalLoop=1;jettySize=auto;html=1;exitX=0.5;exitY=1;exitDx=0;exitDy=0;entryX=0.5;entryY=0;entryDx=0;entryDy=0;" edge="1" parent="WIyWlLk6GJQsqaUBKTNV-1" source="WtQ2wS6L-ct6F4GXEsZS-39" target="WIyWlLk6GJQsqaUBKTNV-11">
          <mxGeometry relative="1" as="geometry" />
        </mxCell>
        <mxCell id="WtQ2wS6L-ct6F4GXEsZS-39" value="Menyerahkan hasil belanjanya kepada ibu" style="whiteSpace=wrap;html=1;rounded=0;" vertex="1" parent="WIyWlLk6GJQsqaUBKTNV-1">
          <mxGeometry x="162.5" y="1060" width="120" height="60" as="geometry" />
        </mxCell>
      </root>
    </mxGraphModel>
  </diagram>
</mxfile>
